<svg width="512" height="512" viewBox="0 0 512 512" xmlns="http://www.w3.org/2000/svg">
  <defs>
    <!-- Futuristic Gradient -->
    <linearGradient id="mainGradient" x1="0%" y1="0%" x2="100%" y2="100%">
      <stop offset="0%" style="stop-color:#3B82F6;stop-opacity:1" />
      <stop offset="25%" style="stop-color:#8B5CF6;stop-opacity:1" />
      <stop offset="50%" style="stop-color:#EC4899;stop-opacity:1" />
      <stop offset="75%" style="stop-color:#06B6D4;stop-opacity:1" />
      <stop offset="100%" style="stop-color:#3B82F6;stop-opacity:1" />
    </linearGradient>
    
    <!-- Holographic Shimmer -->
    <linearGradient id="shimmer" x1="0%" y1="0%" x2="100%" y2="0%">
      <stop offset="0%" style="stop-color:rgba(255,255,255,0);stop-opacity:0" />
      <stop offset="50%" style="stop-color:rgba(255,255,255,0.8);stop-opacity:1" />
      <stop offset="100%" style="stop-color:rgba(255,255,255,0);stop-opacity:0" />
      <animateTransform
        attributeName="gradientTransform"
        type="translate"
        values="-100 0;600 0;-100 0"
        dur="3s"
        repeatCount="indefinite" />
    </linearGradient>
    
    <!-- Glow Filter -->
    <filter id="glow">
      <feGaussianBlur stdDeviation="4" result="coloredBlur"/>
      <feMerge> 
        <feMergeNode in="coloredBlur"/>
        <feMergeNode in="SourceGraphic"/>
      </feMerge>
    </filter>
    
    <!-- Circuit Pattern -->
    <pattern id="circuit" x="0" y="0" width="40" height="40" patternUnits="userSpaceOnUse">
      <rect width="40" height="40" fill="none"/>
      <path d="M0 20h10m10 0h10m10 0h10M20 0v10m0 10v10m0 10v10" stroke="url(#mainGradient)" stroke-width="1" opacity="0.3"/>
      <circle cx="20" cy="20" r="2" fill="url(#mainGradient)" opacity="0.5"/>
    </pattern>
  </defs>
  
  <!-- Background Circle with Circuit Pattern -->
  <circle cx="256" cy="256" r="240" fill="url(#circuit)" opacity="0.1"/>
  
  <!-- Main Background Circle -->
  <circle cx="256" cy="256" r="220" fill="url(#mainGradient)" opacity="0.1" filter="url(#glow)"/>
  
  <!-- Letter E -->
  <g transform="translate(180, 180)">
    <path d="M0 0h80v20H25v35h50v20H25v35h80v20H0z" 
          fill="url(#mainGradient)" 
          filter="url(#glow)"/>
    <!-- Shimmer overlay for E -->
    <path d="M0 0h80v20H25v35h50v20H25v35h80v20H0z" 
          fill="url(#shimmer)" 
          opacity="0.6"/>
  </g>
  
  <!-- Letter K -->
  <g transform="translate(300, 180)">
    <path d="M0 0h25v50l35-50h30l-40 55 45 75h-32l-33-55-5 8v47H0z" 
          fill="url(#mainGradient)" 
          filter="url(#glow)"/>
    <!-- Shimmer overlay for K -->
    <path d="M0 0h25v50l35-50h30l-40 55 45 75h-32l-33-55-5 8v47H0z" 
          fill="url(#shimmer)" 
          opacity="0.6"/>
  </g>
  
  <!-- Tech Accent Lines -->
  <g opacity="0.6">
    <line x1="100" y1="256" x2="150" y2="256" stroke="url(#mainGradient)" stroke-width="3">
      <animate attributeName="opacity" values="0.3;1;0.3" dur="2s" repeatCount="indefinite"/>
    </line>
    <line x1="362" y1="256" x2="412" y2="256" stroke="url(#mainGradient)" stroke-width="3">
      <animate attributeName="opacity" values="1;0.3;1" dur="2s" repeatCount="indefinite"/>
    </line>
    <line x1="256" y1="100" x2="256" y2="150" stroke="url(#mainGradient)" stroke-width="3">
      <animate attributeName="opacity" values="0.3;1;0.3" dur="2.5s" repeatCount="indefinite"/>
    </line>
    <line x1="256" y1="362" x2="256" y2="412" stroke="url(#mainGradient)" stroke-width="3">
      <animate attributeName="opacity" values="1;0.3;1" dur="2.5s" repeatCount="indefinite"/>
    </line>
  </g>
  
  <!-- Corner Tech Elements -->
  <g opacity="0.4">
    <rect x="50" y="50" width="15" height="15" fill="url(#mainGradient)" rx="2">
      <animate attributeName="opacity" values="0.2;0.8;0.2" dur="3s" repeatCount="indefinite"/>
    </rect>
    <rect x="447" y="50" width="15" height="15" fill="url(#mainGradient)" rx="2">
      <animate attributeName="opacity" values="0.8;0.2;0.8" dur="3s" repeatCount="indefinite"/>
    </rect>
    <rect x="50" y="447" width="15" height="15" fill="url(#mainGradient)" rx="2">
      <animate attributeName="opacity" values="0.8;0.2;0.8" dur="3s" repeatCount="indefinite"/>
    </rect>
    <rect x="447" y="447" width="15" height="15" fill="url(#mainGradient)" rx="2">
      <animate attributeName="opacity" values="0.2;0.8;0.2" dur="3s" repeatCount="indefinite"/>
    </rect>
  </g>
</svg>